# xmcd
#
# Track frame offsets: 
#        150
#        17935
#        41364
#        57583
#        111680
#        129739
#        147525
#        165954
#        190062
#        208944
#        232108
#        265269
#        288022
#        319958
#        336807
#
# Disc length: 4679 seconds
#
# Revision: 4
# Processed by: cddbd v1.5.2PL0 Copyright (c) Steve Scherf et al.
# Submitted via: ExactAudioCopy v1.0b3
#
DISCID=ed12450f
DTITLE=Enigma - Gold 2000
DYEAR=2000
DGENRE=Electronic
TTITLE0=Gravity Of Love (Single Version)
TTITLE1=Beyond The Invisible
TTITLE2=Carly's Song (Silver Version)
TTITLE3=Priciples Of Lust
TTITLE4=Screen Behind The Mirror
TTITLE5=Mea Culpa Part II (Single Version)
TTITLE6=Return To Innocence (Single Version)
TTITLE7=Why!...
TTITLE8=Between Mind And Heart
TTITLE9=Out From The Deep
TTITLE10=The Rivers Of Belief
TTITLE11=The Child In Us
TTITLE12=Eyes Of Truth
TTITLE13=The Roundabout
TTITLE14=Carly's Loneliness (Silver Version)
EXTD=
EXTT0=
EXTT1=
EXTT2=
EXTT3=
EXTT4=
EXTT5=
EXTT6=
EXTT7=
EXTT8=
EXTT9=
EXTT10=
EXTT11=
EXTT12=
EXTT13=
EXTT14=
PLAYORDER=
